<svg xmlns="http://www.w3.org/2000/svg" viewBox="0 0 64 64" role="img" aria-labelledby="title">
  <title id="title">Prompt Freeport geometric icon</title>
  <defs>
    <linearGradient id="surface" x1="14" y1="8" x2="50" y2="58" gradientUnits="userSpaceOnUse">
      <stop offset="0" stop-color="#ffffff"/>
      <stop offset="0.62" stop-color="#fafafa"/>
      <stop offset="1" stop-color="#f1f2f4"/>
    </linearGradient>
    <linearGradient id="mark" x1="19" y1="17" x2="45" y2="49" gradientUnits="userSpaceOnUse">
      <stop offset="0" stop-color="#171717"/>
      <stop offset="0.58" stop-color="#20232a"/>
      <stop offset="1" stop-color="#2563eb"/>
    </linearGradient>
  </defs>
  <rect x="5.5" y="5.5" width="53" height="53" rx="16" fill="url(#surface)" stroke="#dedfe3"/>
  <path
    d="M31.9 15.8c1 0 1.9.3 2.7.8l12 7.1c1.6 1 2.6 2.7 2.6 4.6v14.1c0 1.9-1 3.6-2.6 4.6l-12 7.1c-1.7 1-3.8 1-5.5 0l-11.8-7.1c-1.6-1-2.6-2.7-2.6-4.6V28.3c0-1.9 1-3.6 2.6-4.6l11.8-7.1c.9-.5 1.8-.8 2.8-.8Z"
    fill="url(#mark)"
  />
  <path
    d="M32 23.5 43.2 30v12.3L32 48.8l-11.2-6.5V30L32 23.5Z"
    fill="none"
    stroke="#ffffff"
    stroke-width="2.4"
    stroke-linejoin="round"
    opacity=".9"
  />
</svg>
